<?xml version="1.0" encoding="UTF-8"?>
<svg width="82px" height="82px" viewBox="0 0 82 82" version="1.1" xmlns="http://www.w3.org/2000/svg" xmlns:xlink="http://www.w3.org/1999/xlink">        
    <path d="M18,18 C20.7,18 22.5,16.2 22.5,13.5 L22.5,4.5 C22.5,2.25 20.7,0 18,0 C15.3,0 13.5,2.25 13.5,4.5 L13.5,13.5 C13.5,16.2 15.3,18 18,18 Z M63,18 C65.7,18 67.5,16.2 67.5,13.5 L67.5,4.5 C67.5,2.25 65.7,0 63,0 C60.3,0 58.5,2.25 58.5,4.5 L58.5,13.5 C58.5,16.2 60.3,18 63,18 Z M22.5,58.5 L13.5,58.5 L13.5,67.5 L22.5,67.5 L22.5,58.5 Z M72,9 L72,13.5 C72,18.45 67.95,22.5 63,22.5 C58.05,22.5 54,18.45 54,13.5 L54,9 L27,9 L27,13.5 C27,18.45 22.95,22.5 18,22.5 C13.05,22.5 9,18.45 9,13.5 L9,9 L4.5,9 C2.25,9 0,11.25 0,13.5 L0,76.5 C0,78.75 2.25,81 4.5,81 L76.5,81 C78.75,81 81,78.75 81,76.5 L81,13.5 C81,11.25 78.75,9 76.5,9 L72,9 Z M27,72 L9,72 L9,54 L27,54 L27,72 Z M27,49.5 L9,49.5 L9,31.5 L27,31.5 L27,49.5 Z M49.5,72 L31.5,72 L31.5,54 L49.5,54 L49.5,72 Z M49.5,49.5 L31.5,49.5 L31.5,31.5 L49.5,31.5 L49.5,49.5 Z M72,72 L54,72 L54,54 L72,54 L72,72 Z M72,49.5 L54,49.5 L54,31.5 L72,31.5 L72,49.5 Z M40.5,58.5 L13.5,58.5 L13.5,58.5 L13.5,67.5 L40.5,67.5 C42.9852814,67.5 45,65.4852814 45,63 C45,60.5147186 42.9852814,58.5 40.5,58.5 Z M67.5,36 L41,36 C38.5147186,36 36.5,38.0147186 36.5,40.5 C36.5,42.9852814 38.5147186,45 41,45 L67.5,45 L67.5,45 L67.5,36 Z"></path>
</svg>