<?xml version="1.0" encoding="UTF-8"?>
<svg width="18px" height="18px" viewBox="0 0 18 18" version="1.1" xmlns="http://www.w3.org/2000/svg" xmlns:xlink="http://www.w3.org/1999/xlink">
    <title>due-date</title>
    <g id="Page-1" stroke="none" stroke-width="1" fill="none" fill-rule="evenodd">
        <path d="M4,4 C4.6,4 5,3.6 5,3 L5,1 C5,0.5 4.6,0 4,0 C3.4,0 3,0.5 3,1 L3,3 C3,3.6 3.4,4 4,4 L4,4 Z M14,4 C14.6,4 15,3.6 15,3 L15,1 C15,0.5 14.6,0 14,0 C13.4,0 13,0.5 13,1 L13,3 C13,3.6 13.4,4 14,4 L14,4 Z M16,2 L16,3 C16,4.1 15.1,5 14,5 C12.9,5 12,4.1 12,3 L12,2 L6,2 L6,3 C6,4.1 5.1,5 4,5 C2.9,5 2,4.1 2,3 L2,2 L1,2 C0.5,2 0,2.5 0,3 L0,17 C0,17.5 0.5,18 1,18 L17,18 C17.5,18 18,17.5 18,17 L18,3 C18,2.5 17.5,2 17,2 L16,2 Z M16,7 L16,16 L2,16 L2,7 L16,7 Z M12.375,9 L6.125,9 C5.78125,9 5.5,9.28125 5.5,9.625 C5.5,9.775 5.5625,9.9125 5.65,10.01875 L5.64375,10.025 L8.76875,13.775 L8.775,13.76875 C8.89375,13.90625 9.05625,14 9.25,14 C9.44375,14 9.60625,13.90625 9.725,13.76875 L9.73125,13.775 L12.85625,10.025 L12.85,10.01875 C12.9375,9.9125 13,9.775 13,9.625 C13,9.28125 12.71875,9 12.375,9 Z" id="due-date" fill="#000000" fill-rule="nonzero"></path>
    </g>
</svg>