<?xml version="1.0" ?><!DOCTYPE svg  PUBLIC '-//W3C//DTD SVG 1.1//EN'  'http://www.w3.org/Graphics/SVG/1.1/DTD/svg11.dtd'><svg height="2.7092mm" style="shape-rendering:geometricPrecision; text-rendering:geometricPrecision; image-rendering:optimizeQuality; fill-rule:evenodd; clip-rule:evenodd" version="1.1" viewBox="0 0 270.92 270.92" width="2.7092mm" xml:space="preserve" xmlns="http://www.w3.org/2000/svg" xmlns:xlink="http://www.w3.org/1999/xlink"><defs><style type="text/css">
  </style></defs><g id="Layer_x0020_1"><path class="fil0" d="M202.48 217.15c0,7.47 -6.08,13.53 -13.54,13.53l-106.95 0c-7.47,0 -13.54,-6.06 -13.54,-13.53l0 -163.38c0,-7.47 6.07,-13.55 13.54,-13.55l84.29 0c1.91,0 3.75,0.78 5.09,2.12l29.01 29.14c1.35,1.36 2.1,3.16 2.1,5.07l0 140.6zm-10.06 -144.61l-22.14 0 0 -23.29c0,-1.96 -1.59,-3.54 -3.54,-3.54 -1.95,0 -3.52,1.58 -3.52,3.54l0 26.83c0,1.95 1.57,3.52 3.52,3.52l25.68 0c1.95,0 3.53,-1.57 3.53,-3.52 0,-1.95 -1.58,-3.54 -3.53,-3.54zm12.97 -6.04l-29.02 -29.15c-2.65,-2.65 -6.33,-4.18 -10.09,-4.18l-84.29 0c-11.36,0 -20.6,9.25 -20.6,20.6l0 163.38c0,11.34 9.24,20.59 20.6,20.59l106.95 0c11.35,0 20.59,-9.25 20.59,-20.59l0 -140.6c0,-3.78 -1.47,-7.36 -4.14,-10.05z"/></g></svg>