<?xml version="1.0" encoding="UTF-8"?>
<svg width="400px" height="255px" viewBox="0 0 400 255" version="1.1" xmlns="http://www.w3.org/2000/svg" xmlns:xlink="http://www.w3.org/1999/xlink">
    <title>Group 2 Copy</title>
    <g id="Page-1" stroke="none" stroke-width="1" fill="none" fill-rule="evenodd">
        <g id="Group-2-Copy" fill-rule="nonzero">
            <rect id="a" fill="#E4E4E4" x="0" y="0" width="400" height="255" rx="3.969"></rect>
            <g id="Group" transform="translate(13.000000, 37.000000)">
                <polygon id="Path" fill="#B4B4B4" points="0 0 80 0 80 203 0 203"></polygon>
                <polygon id="Path" fill="#E4E4E4" points="3.24324324 7.14 9.72972973 7.14 9.72972973 13.07 3.24324324 13.07"></polygon>
                <polygon id="Path" fill="#E4E4E4" points="12.972973 7.14 76.7567568 7.14 76.7567568 13.07 12.972973 13.07"></polygon>
                <rect id="Rectangle" fill="#E4E4E4" x="3" y="23.628" width="74" height="24" rx="1.984"></rect>
                <rect id="Rectangle-Copy" fill="#E4E4E4" x="3" y="52.628" width="74" height="24" rx="1.984"></rect>
                <rect id="Rectangle-Copy-2" fill="#E4E4E4" x="3" y="110.628" width="74" height="24" rx="1.984"></rect>
                <rect id="Rectangle-Copy-4" fill="#E4E4E4" x="3" y="139.628" width="74" height="24" rx="1.984"></rect>
                <rect id="Rectangle-Copy-5" fill="#E4E4E4" x="3" y="168.628" width="74" height="24" rx="1.984"></rect>
                <rect id="Rectangle-Copy-3" fill="#E4E4E4" x="3" y="81.628" width="74" height="24" rx="1.984"></rect>
                <polygon id="Path" fill="#F47023" points="0 0.093 80 0.093 80 2.07 0 2.07"></polygon>
            </g>
            <g id="Group-Copy" transform="translate(108.000000, 37.000000)">
                <polygon id="Path" fill="#B4B4B4" points="0 0 80 0 80 144 0 144"></polygon>
                <polygon id="Path" fill="#E4E4E4" points="3.24324324 7.14 9.72972973 7.14 9.72972973 13.07 3.24324324 13.07"></polygon>
                <polygon id="Path" fill="#E4E4E4" points="12.972973 7.14 76.7567568 7.14 76.7567568 13.07 12.972973 13.07"></polygon>
                <rect id="Rectangle" fill="#E4E4E4" x="3.24324324" y="23.628" width="73.5135135" height="24" rx="1.984"></rect>
                <rect id="Rectangle-Copy" fill="#E4E4E4" x="3.24324324" y="52.628" width="73.5135135" height="24" rx="1.984"></rect>
                <rect id="Rectangle-Copy-2" fill="#E4E4E4" x="3.24324324" y="110.628" width="73.5135135" height="24" rx="1.984"></rect>
                <rect id="Rectangle-Copy-3" fill="#E4E4E4" x="3.24324324" y="81.628" width="73.5135135" height="24" rx="1.984"></rect>
                <polygon id="Path" fill="#F47023" points="0 0.093 80 0.093 80 2.07 0 2.07"></polygon>
            </g>
            <g id="Group-Copy-2" transform="translate(203.000000, 37.000000)">
                <polygon id="Path" fill="#B4B4B4" points="0 0 80 0 80 200 0 200"></polygon>
                <polygon id="Path" fill="#E4E4E4" points="3.24324324 7.14 9.72972973 7.14 9.72972973 13.07 3.24324324 13.07"></polygon>
                <polygon id="Path" fill="#E4E4E4" points="12.972973 7.14 76.7567568 7.14 76.7567568 13.07 12.972973 13.07"></polygon>
                <rect id="Rectangle" fill="#E4E4E4" x="3.24324324" y="23.628" width="73.5135135" height="24" rx="1.984"></rect>
                <rect id="Rectangle-Copy" fill="#E4E4E4" x="3.24324324" y="52.628" width="73.5135135" height="24" rx="1.984"></rect>
                <rect id="Rectangle-Copy-2" fill="#E4E4E4" x="3.24324324" y="110.628" width="73.5135135" height="24" rx="1.984"></rect>
                <rect id="Rectangle-Copy-6" fill="#E4E4E4" x="3.24324324" y="139.628" width="73.5135135" height="24" rx="1.984"></rect>
                <rect id="Rectangle-Copy-7" fill="#E4E4E4" x="3.24324324" y="168.628" width="73.5135135" height="24" rx="1.984"></rect>
                <rect id="Rectangle-Copy-3" fill="#E4E4E4" x="3.24324324" y="81.628" width="73.5135135" height="24" rx="1.984"></rect>
                <polygon id="Path" fill="#F47023" points="0 0.093 80 0.093 80 2.07 0 2.07"></polygon>
            </g>
            <g id="Group-Copy-3" transform="translate(298.000000, 37.000000)">
                <polygon id="Path" fill="#B4B4B4" points="0 0 80 0 80 171 0 171"></polygon>
                <polygon id="Path" fill="#E4E4E4" points="3.24324324 7.14 9.72972973 7.14 9.72972973 13.07 3.24324324 13.07"></polygon>
                <polygon id="Path" fill="#E4E4E4" points="12.972973 7.14 76.7567568 7.14 76.7567568 13.07 12.972973 13.07"></polygon>
                <rect id="Rectangle" fill="#E4E4E4" x="3.24324324" y="23.628" width="73.5135135" height="24" rx="1.984"></rect>
                <rect id="Rectangle-Copy" fill="#E4E4E4" x="3.24324324" y="52.628" width="73.5135135" height="24" rx="1.984"></rect>
                <rect id="Rectangle-Copy-2" fill="#E4E4E4" x="3.24324324" y="110.628" width="73.5135135" height="24" rx="1.984"></rect>
                <rect id="Rectangle-Copy-6" fill="#E4E4E4" x="3.24324324" y="139.628" width="73.5135135" height="24" rx="1.984"></rect>
                <rect id="Rectangle-Copy-3" fill="#E4E4E4" x="3.24324324" y="81.628" width="73.5135135" height="24" rx="1.984"></rect>
                <polygon id="Path" fill="#F47023" points="0 0.093 80 0.093 80 2.07 0 2.07"></polygon>
            </g>
            <g id="g-link" fill="#000000">
                <polygon id="g" points="0 0 400 0 400 23.721 0 23.721"></polygon>
            </g>
            <g id="g-link" fill="#D2D2D2">
                <polygon id="g" points="0 0 400 0 400 23.721 0 23.721"></polygon>
            </g>
            <rect id="Rectangle" fill="#B4B4B4" x="166" y="7.907" width="67" height="7.907" rx="1.984"></rect>
            <polygon id="Path" fill="#B4B4B4" points="340 7.907 348 7.907 348 15.814 340 15.814"></polygon>
            <polygon id="Path" fill="#B4B4B4" points="329 7.907 337 7.907 337 15.814 329 15.814"></polygon>
            <polygon id="Path-Copy" fill="#B4B4B4" points="9 7.907 17 7.907 17 15.814 9 15.814"></polygon>
            <polygon id="Path" fill="#B4B4B4" points="351 7.907 359 7.907 359 15.814 351 15.814"></polygon>
            <polygon id="Path" fill="#B4B4B4" points="362 7.907 370 7.907 370 15.814 362 15.814"></polygon>
            <rect id="Rectangle" fill="#B4B4B4" x="380" y="5.93" width="12" height="11.86" rx="5.93"></rect>
        </g>
    </g>
</svg>