<svg width="900" height="600" viewBox="0 0 900 600" fill="none" xmlns="http://www.w3.org/2000/svg"><path fill="transparent" d="M0 0h900v600H0z"/><path d="M696.593 184.468c-25.515-12.392-52.382 2.161-89.628 33.807-28.008 23.806-53.829 45.113-72.469 82.387-13.052 26.081-18.91 53.156-20.582 76.657-1.816 25.462-7.238 56.852 14.631 69.073 30.046 16.783 116.496-11.629 161.653-94.962 49.597-91.553 31.342-154.858 6.395-166.962z" fill="url(#a)"/><path d="M433.54 151.233c18.902 17.228 15.689 44.591 1.629 86.356-10.58 31.409-19.798 60.152-44.787 88.214-17.482 19.644-38.2 33.595-57.323 42.847-20.718 10.027-45.195 25.054-62.735 10.822-24.093-19.556-29.179-101.448 25.525-167.105 60.104-72.122 119.219-77.982 137.691-61.134z" fill="url(#b)"/><path d="M574.954 204.106c-31.536 35.175-93.709 30.904-93.709 30.904s-11.004-61.303 20.564-96.459c31.537-35.175 93.679-30.923 93.679-30.923s11.003 61.304-20.534 96.478z" fill="url(#c)"/><path fill-rule="evenodd" clip-rule="evenodd" d="M647.228 249.493v170.299c0 20.909-16.935 37.845-37.844 37.845h-264.91c-20.909 0-37.845-16.936-37.845-37.845V249.493c0-20.909 16.936-37.844 37.845-37.844h37.844l27.664-47.381a18.923 18.923 0 0 1 16.349-9.385h100.363a18.942 18.942 0 0 1 16.216 9.158l28.629 47.608h37.845c20.909 0 37.844 16.935 37.844 37.844z" fill="#C4C4C4" stroke="#C4C4C4" stroke-width="22.25" stroke-linecap="round" stroke-linejoin="round"/><path fill-rule="evenodd" clip-rule="evenodd" d="M521.502 281.911c23.912 23.663 23.912 62.028 0 85.692-23.912 23.663-62.682 23.663-86.594 0-23.912-23.664-23.912-62.029 0-85.692 23.912-23.663 62.682-23.663 86.594 0zm47.551-38.435c4.732 4.732 4.732 12.405 0 17.138-4.733 4.733-12.406 4.733-17.139 0-4.732-4.733-4.732-12.406 0-17.138 4.733-4.733 12.406-4.733 17.139 0z" fill="#fff"/><path fill-rule="evenodd" clip-rule="evenodd" d="M721.324 210.167v4.166h4.361c1.82 0 3.315 1.428 3.315 3.167 0 1.739-1.495 3.167-3.315 3.167h-4.361v4.166c0 1.738-1.495 3.167-3.315 3.167-1.82 0-3.315-1.429-3.315-3.167v-4.149h-4.379c-1.82 0-3.315-1.428-3.315-3.167 0-1.738 1.495-3.167 3.315-3.167h4.361v-4.183c0-1.738 1.495-3.167 3.333-3.167 1.82 0 3.315 1.429 3.315 3.167zm-29.14-42.793v5.752h6.144c2.565 0 4.672 1.973 4.672 4.374s-2.107 4.374-4.672 4.374h-6.144v5.752c0 2.401-2.107 4.374-4.671 4.374-2.565 0-4.672-1.973-4.672-4.374v-5.728h-6.169c-2.565 0-4.672-1.973-4.672-4.374s2.107-4.374 4.672-4.374h6.144v-5.776c0-2.401 2.107-4.374 4.697-4.374 2.564 0 4.671 1.973 4.671 4.374zm-54.535-23.889v8.53h8.72c3.64 0 6.631 2.925 6.631 6.485 0 3.56-2.991 6.485-6.631 6.485h-8.72v8.53c0 3.56-2.991 6.485-6.631 6.485s-6.631-2.925-6.631-6.485v-8.495h-8.756c-3.64 0-6.631-2.925-6.631-6.485 0-3.56 2.991-6.485 6.631-6.485h8.72v-8.565c0-3.56 2.991-6.485 6.667-6.485 3.64 0 6.631 2.925 6.631 6.485z" fill="#E1E4E5"/><circle r="6" transform="matrix(1 0 0 -1 252 240)" fill="#E1E4E5"/><path d="M696.63 293h-.254C694.87 312.205 679 312.501 679 312.501s17.5.308 17.5 22.499c0-22.191 17.5-22.499 17.5-22.499s-15.863-.296-17.37-19.501zM359.586 156h-.167c-.99 12.346-11.419 12.536-11.419 12.536s11.5.198 11.5 14.464c0-14.266 11.5-14.464 11.5-14.464s-10.425-.19-11.414-12.536z" fill="#E1E4E5"/><path fill-rule="evenodd" clip-rule="evenodd" d="M578.678 424.486h2.972c.718 0 1.297.585 1.297 1.298v2.972c0 .718-.585 1.297-1.297 1.297h-2.972a1.303 1.303 0 0 1-1.298-1.297v-2.972a1.295 1.295 0 0 1 1.298-1.298zm10.303 0h2.972c.713 0 1.297.585 1.297 1.298v2.972c0 .718-.584 1.297-1.297 1.297h-2.972a1.303 1.303 0 0 1-1.297-1.297v-2.972c0-.713.585-1.298 1.297-1.298zm10.31 0h2.972c.713 0 1.298.585 1.298 1.298v2.972c0 .718-.585 1.297-1.298 1.297h-2.972a1.303 1.303 0 0 1-1.297-1.297v-2.972a1.295 1.295 0 0 1 1.297-1.298zm10.305 0h2.972c.713 0 1.297.585 1.297 1.298v2.972c0 .718-.584 1.297-1.297 1.297h-2.972a1.303 1.303 0 0 1-1.303-1.297v-2.972a1.312 1.312 0 0 1 1.303-1.298zm10.305 0h2.972c.719 0 1.303.585 1.303 1.298v2.972a1.3 1.3 0 0 1-1.303 1.297h-2.972a1.302 1.302 0 0 1-1.297-1.297v-2.972c0-.713.584-1.298 1.297-1.298zm-30.542 11.236h2.972c.713 0 1.297.585 1.297 1.298v2.978c0 .712-.584 1.297-1.297 1.297h-2.972a1.299 1.299 0 0 1-1.297-1.297v-2.972a1.296 1.296 0 0 1 1.297-1.304zm10.304 0h2.972c.713 0 1.298.585 1.298 1.298v2.978c0 .712-.585 1.297-1.298 1.297h-2.972a1.303 1.303 0 0 1-1.297-1.297v-2.972a1.296 1.296 0 0 1 1.297-1.304zm10.305 0h2.972c.719 0 1.303.585 1.303 1.298v2.978c0 .712-.584 1.297-1.303 1.297h-2.972a1.302 1.302 0 0 1-1.297-1.297v-2.972c0-.719.584-1.304 1.297-1.304zm-10.677-23.306h2.972c.713 0 1.298.584 1.298 1.297v2.972c0 .718-.585 1.297-1.298 1.297h-2.972a1.303 1.303 0 0 1-1.297-1.297v-2.972a1.294 1.294 0 0 1 1.297-1.297zm10.305 0h2.972c.713 0 1.297.584 1.297 1.297v2.972c0 .718-.584 1.297-1.297 1.297h-2.972a1.303 1.303 0 0 1-1.303-1.297v-2.972a1.311 1.311 0 0 1 1.303-1.297z" fill="#fff"/><rect x="244.079" y="276.25" width="47.355" height="5.517" rx="2.759" transform="rotate(135 244.079 276.25)" fill="#E1E4E5"/><rect x="225.924" y="276.121" width="17.583" height="5.517" rx="2.759" transform="rotate(135 225.924 276.121)" fill="#E1E4E5"/><circle cx="257.736" cy="338.991" r="9.036" transform="rotate(150 257.736 338.991)" fill="#E1E4E5"/><path fill-rule="evenodd" clip-rule="evenodd" d="M268.309 423.174a46.25 46.25 0 0 1 2.326.08 37.422 37.422 0 0 0-37.21-33.412 37.424 37.424 0 0 0-10.729 73.28c1.257-8.676 4.888-16.919 10.616-23.711 8.758-10.385 21.545-16.335 34.991-16.237h.006zm-.061 7c.828.007 1.656.041 2.481.102a37.419 37.419 0 0 1-37.304 34.416c-1.293 0-2.579-.067-3.853-.199 1.022-7.538 4.141-14.699 9.091-20.569 7.438-8.82 18.256-13.832 29.585-13.75zm-46.11-9.442a8.316 8.316 0 0 0 8.316-8.316 8.316 8.316 0 0 0-8.316-8.317 8.316 8.316 0 0 0-8.317 8.317 8.316 8.316 0 0 0 8.317 8.316zm518.77 10.823c.573.005 1.146.024 1.719.056a29.293 29.293 0 0 0-29.028-25.381 29.289 29.289 0 0 0-9.131 57.119c1.02-6.883 3.913-13.422 8.462-18.816 6.998-8.298 17.219-13.056 27.971-12.978h.007zm-.061 7a29.38 29.38 0 0 1 1.876.077 29.29 29.29 0 0 1-31.38 26.09c.786-5.747 3.166-11.204 6.938-15.676 5.677-6.732 13.929-10.553 22.566-10.491zm-36.081-8.15a6.509 6.509 0 1 0 0-13.018 6.509 6.509 0 0 0 0 13.018zm-420.09-255.234c.574.005 1.147.024 1.719.056a29.289 29.289 0 0 0-49.739-16.804 29.29 29.29 0 0 0 11.58 48.542c1.02-6.884 3.913-13.422 8.462-18.816 6.998-8.298 17.219-13.056 27.971-12.978h.007zm-.061 7c.626.005 1.252.031 1.876.076a29.287 29.287 0 0 1-31.38 26.09c.786-5.747 3.166-11.203 6.938-15.675 5.677-6.733 13.929-10.553 22.566-10.491zm-36.08-8.15a6.509 6.509 0 0 0 6.508-6.509 6.509 6.509 0 1 0-6.508 6.509z" fill="#E1E4E5"/><defs><linearGradient id="a" x1="528.325" y1="106.18" x2="744.069" y2="632.598" gradientUnits="userSpaceOnUse"><stop stop-color="#fff"/><stop offset="1" stop-color="#EEE"/></linearGradient><linearGradient id="b" x1="555.318" y1="266.001" x2="42.379" y2="261.181" gradientUnits="userSpaceOnUse"><stop stop-color="#fff"/><stop offset="1" stop-color="#EEE"/></linearGradient><linearGradient id="c" x1="448.247" y1="325.124" x2="670.229" y2="-60.633" gradientUnits="userSpaceOnUse"><stop stop-color="#fff"/><stop offset="1" stop-color="#EEE"/></linearGradient></defs></svg>