<svg width="900" height="600" viewBox="0 0 900 600" fill="none" xmlns="http://www.w3.org/2000/svg">
    <path fill="transparent" d="M0 0h900v600H0z" />
    <path
        d="M699.901 351.539c3.541 65.256-124.04 197.947-281.293 148.834-73.137-22.844-66.942-60.76-122.555-110.731-33.148-29.783-80.776-52.304-94.023-95.596-11.444-37.367-4.426-77.531 15.413-103.656 44.619-58.752 134.696-98.983 223.45-6.414 88.754 92.569 249.855-.738 259.008 167.563z"
        fill="url(#a)" class="secondary" />
    <path
        d="M664.927 207.694c-12.409 22.147-39.587 25.19-83.128 20.982-32.746-3.171-62.608-5.625-95.357-23.48-22.921-12.489-41.066-29.385-54.309-45.795-14.35-17.778-34.38-38.068-24.561-58.225 13.494-27.69 91.53-51.01 167.305-12.873 83.239 41.906 102.19 97.745 90.05 119.391z"
        fill="url(#b)" class="tertiary" />
    <path
        d="M349.07 478.557c-28.91-40.445-58.518-83.431-97.28-104.603-39.983-21.85-47.356-8.384-50.124 13.025-2.768 21.409 9.568 72.134 64.133 100.994 54.579 28.87 110.322 28.437 83.271-9.416z"
        fill="url(#c)" class="secondary" />
    <rect x="282" y="80" width="336.121" height="128.901" rx="20" fill="#fff" class="primary" stroke="#E1E4E5"
        stroke-width="4" />
    <rect x="378.634" y="119.585" width="204.911" height="15.136" rx="7.568" fill="#E1E4E5" class="strokes" />
    <rect x="378.634" y="153.35" width="132.726" height="15.136" rx="7.568" fill="#E1E4E5" class="strokes" />
    <path fill-rule="evenodd" clip-rule="evenodd"
        d="M335.269 176.943c-17.816 0-32.261-14.648-32.261-32.716 0-18.067 14.445-32.716 32.261-32.716 17.817 0 32.262 14.649 32.262 32.716 0 18.068-14.445 32.716-32.262 32.716z"
        fill="#c4c4c4" class="tertiary" />
    <path d="M346.629 138.775 333 153.316l-8.182-8.723" stroke="#fff" stroke-width="3.568" stroke-linecap="round"
        stroke-linejoin="round" />
    <rect x="282" y="235.296" width="336.121" height="128.901" rx="20" fill="#fff" class="primary" stroke="#E1E4E5"
        stroke-width="4" />
    <rect x="378.634" y="274.881" width="204.911" height="15.136" rx="7.568" fill="#E1E4E5" class="strokes" />
    <rect x="378.634" y="308.646" width="132.726" height="15.136" rx="7.568" fill="#E1E4E5" class="strokes" />
    <path fill-rule="evenodd" clip-rule="evenodd"
        d="M335.269 332.24c-17.816 0-32.261-14.649-32.261-32.716 0-18.068 14.445-32.716 32.261-32.716 17.817 0 32.262 14.648 32.262 32.716 0 18.067-14.445 32.716-32.262 32.716z"
        fill="#c4c4c4" class="tertiary" />
    <path d="M346.629 294.072 333 308.612l-8.182-8.723" stroke="#fff" stroke-width="3.568" stroke-linecap="round"
        stroke-linejoin="round" />
    <rect x="282" y="390.593" width="336.121" height="128.901" rx="20" fill="#fff" class="primary" stroke="#E1E4E5"
        stroke-width="4" />
    <rect x="378.634" y="430.178" width="204.911" height="15.136" rx="7.568" fill="#E1E4E5" class="strokes" />
    <rect x="378.634" y="463.942" width="132.726" height="15.136" rx="7.568" fill="#E1E4E5" class="strokes" />
    <path fill-rule="evenodd" clip-rule="evenodd"
        d="M335.269 487.536c-17.816 0-32.261-14.649-32.261-32.716s14.445-32.716 32.261-32.716c17.817 0 32.262 14.649 32.262 32.716s-14.445 32.716-32.262 32.716z"
        fill="#c4c4c4" class="tertiary" />
    <path d="M346.629 449.368 333 463.909l-8.182-8.723" stroke="#fff" stroke-width="3.568" stroke-linecap="round"
        stroke-linejoin="round" />
    <circle cx="647.129" cy="178.12" r="3.473" transform="rotate(105 647.129 178.12)" fill="#E1E4E5" />
    <circle cx="663.846" cy="238.714" r="5.318" fill="#c4c4c4" class="primary" />
    <circle cx="242.402" cy="421.17" r="7.978" transform="rotate(-180 242.402 421.17)" fill="#c4c4c4" class="primary" />
    <circle r="5.595" transform="matrix(-1 0 0 1 223.967 246.05)" fill="#c4c4c4" class="primary" />
    <circle r="10.105" transform="matrix(-1 0 0 1 179.645 341.394)" fill="#E1E4E5" />
    <circle r="10.105" transform="matrix(-1 0 0 1 674.253 412.661)" fill="#E1E4E5" />
    <circle r="4.971" transform="scale(1 -1) rotate(-75 -77.006 -309.133)" fill="#E1E4E5" />
    <circle r="4.971" transform="scale(1 -1) rotate(-75 117.554 -573.945)" fill="#E1E4E5" />
    <circle r="6.613" transform="matrix(-1 0 0 1 247.365 191.115)" fill="#E1E4E5" />
    <defs>
        <linearGradient id="a" x1="547.414" y1="742.697" x2="308.766" y2="-334.001" gradientUnits="userSpaceOnUse">
            <stop stop-color="#fff" />
            <stop offset="1" stop-color="#EEE" />
        </linearGradient>
        <linearGradient id="b" x1="581.329" y1="351.229" x2="470.72" y2="-145.8" gradientUnits="userSpaceOnUse">
            <stop stop-color="#fff" />
            <stop offset="1" stop-color="#EEE" />
        </linearGradient>
        <linearGradient id="c" x1="316.789" y1="611.329" x2="221.937" y2="172.688" gradientUnits="userSpaceOnUse">
            <stop stop-color="#fff" />
            <stop offset="1" stop-color="#EEE" />
        </linearGradient>
    </defs>
</svg>