<?xml version="1.0" encoding="UTF-8"?>
<svg width="18px" height="18px" viewBox="0 0 18 18" version="1.1" xmlns="http://www.w3.org/2000/svg" xmlns:xlink="http://www.w3.org/1999/xlink">
    <g>
        <path d="M4,4 C4.6,4 5,3.6 5,3 L5,1 C5,0.5 4.6,0 4,0 C3.4,0 3,0.5 3,1 L3,3 C3,3.6 3.4,4 4,4 L4,4 Z M14,4 C14.6,4 15,3.6 15,3 L15,1 C15,0.5 14.6,0 14,0 C13.4,0 13,0.5 13,1 L13,3 C13,3.6 13.4,4 14,4 L14,4 Z M16,2 L16,3 C16,4.1 15.1,5 14,5 C12.9,5 12,4.1 12,3 L12,2 L6,2 L6,3 C6,4.1 5.1,5 4,5 C2.9,5 2,4.1 2,3 L2,2 L1,2 C0.5,2 0,2.5 0,3 L0,17 C0,17.5 0.5,18 1,18 L17,18 C17.5,18 18,17.5 18,17 L18,3 C18,2.5 17.5,2 17,2 L16,2 Z M16,7 L16,16 L2,16 L2,7 L16,7 Z M8.75,9 C8.55625,9 8.39375,9.09375 8.275,9.23125 L8.26875,9.225 L5.14375,12.975 L5.15,12.98125 C5.0625,13.0875 5,13.225 5,13.375 C5,13.71875 5.28125,14 5.625,14 L11.875,14 C12.21875,14 12.5,13.71875 12.5,13.375 C12.5,13.225 12.4375,13.0875 12.35,12.98125 L12.35625,12.975 L9.23125,9.225 L9.225,9.23125 C9.10625,9.09375 8.94375,9 8.75,9 Z" fill-rule="nonzero"></path>
    </g>
</svg>