<?xml version="1.0" encoding="UTF-8"?>
<svg width="23px" height="31px" viewBox="0 0 23 31" version="1.1" xmlns="http://www.w3.org/2000/svg" xmlns:xlink="http://www.w3.org/1999/xlink">
    <title>filtered-tasks</title>
    <g id="Page-1" stroke="none" stroke-width="1" fill="none" fill-rule="evenodd">
        <g id="filtered-tasks" transform="translate(1.000000, 1.000000)">
            <circle id="Oval" stroke="#000000" stroke-linecap="round" stroke-linejoin="round" cx="10.5" cy="16.5" r="5.5"></circle>
            <path d="M15,1.99997593 L18.9,1.99997593 C19.4543044,1.99734148 19.9869613,2.21499168 20.3807891,2.60506872 C20.7746169,2.99514575 20.9973542,3.52569556 21,4.08 L21,26.92 C20.9973542,27.4743044 20.7746169,28.0048542 20.3807891,28.3949313 C19.9869613,28.7850083 19.4543044,29.0026585 18.9,29.0000241 L2.1,29.0000241 C1.54569562,29.0026585 1.0130387,28.7850083 0.619210922,28.3949313 C0.225383145,28.0048542 0.00264582929,27.4743044 0,26.92 L0,4.08 C0.00264582929,3.52569556 0.225383145,2.99514575 0.619210922,2.60506872 C1.0130387,2.21499168 1.54569562,1.99734148 2.1,1.99997593 L6,1.99997593" id="Path" stroke="#000000" stroke-linecap="round" stroke-linejoin="round"></path>
            <rect id="Rectangle" stroke="#000000" stroke-linecap="round" stroke-linejoin="round" x="6" y="0" width="9" height="4" rx="1"></rect>
            <path d="M12.9786502,14.1384943 C13.0188381,14.2355587 13.0022901,14.3184186 12.9290062,14.3870739 L11.1808309,16.1377841 L11.1808309,19.7727273 C11.1808309,19.8721591 11.134733,19.9419981 11.0425372,19.9822443 C11.0118052,19.9940814 10.9822553,20 10.9538873,20 C10.8900594,20 10.8368695,19.9775095 10.7943175,19.9325284 L9.88654295,19.0234375 C9.84162702,18.9784564 9.81916906,18.9251894 9.81916906,18.8636364 L9.81916906,16.1377841 L8.07099376,14.3870739 C7.99770988,14.3184186 7.9811619,14.2355587 8.02134984,14.1384943 C8.06153778,14.0461648 8.13127567,14 8.23056352,14 L12.7694365,14 C12.8687243,14 12.9384622,14.0461648 12.9786502,14.1384943 Z" id="Path" fill="#000000" fill-rule="nonzero"></path>
        </g>
    </g>
</svg>