<?xml version="1.0" encoding="UTF-8"?>
<svg width="136px" height="130px" viewBox="0 0 136 130" version="1.1" xmlns="http://www.w3.org/2000/svg" xmlns:xlink="http://www.w3.org/1999/xlink">
    <!-- Generator: Sketch 62 (91390) - https://sketch.com -->
    <title>Group 4</title>
    <desc>Created with Sketch.</desc>
    <g id="Page-1" stroke="none" stroke-width="1" fill="none" fill-rule="evenodd">
        <g id="Group-4" fill="#000000" fill-rule="nonzero">
            <path d="M77.5,0 L58.5,0 C53.2532949,0 49,4.25329488 49,9.5 L49,28.5 C49,33.7467051 53.2532949,38 58.5,38 L77.5,38 C82.7467051,38 87,33.7467051 87,28.5 L87,9.5 C87,4.25329488 82.7467051,0 77.5,0 Z M77.5,28.5 L58.5,28.5 L58.5,9.5 L77.5,9.5 L77.5,28.5 Z" id="Shape" transform="translate(68.000000, 19.000000) rotate(-180.000000) translate(-68.000000, -19.000000) "></path>
            <path d="M126.5,0 L107.5,0 C102.253295,0 98,4.17867567 98,9.33333333 L98,74.6666667 C98,79.8213243 102.253295,84 107.5,84 L126.5,84 C131.746705,84 136,79.8213243 136,74.6666667 L136,9.33333333 C136,4.17867567 131.746705,0 126.5,0 Z M126.5,74.6666667 L107.5,74.6666667 L107.5,9.33333333 L126.5,9.33333333 L126.5,74.6666667 Z" id="Shape" transform="translate(117.000000, 42.000000) rotate(-180.000000) translate(-117.000000, -42.000000) "></path>
            <path d="M28.5,0 L9.5,0 C4.25329488,0 0,4.15735589 0,9.28571429 L0,120.714286 C0,125.842644 4.25329488,130 9.5,130 L28.5,130 C33.7467051,130 38,125.842644 38,120.714286 L38,9.28571429 C38,4.15735589 33.7467051,0 28.5,0 Z M28.5,120.714286 L9.5,120.714286 L9.5,9.28571429 L28.5,9.28571429 L28.5,120.714286 Z" id="Shape" transform="translate(19.000000, 65.000000) rotate(-180.000000) translate(-19.000000, -65.000000) "></path>
        </g>
    </g>
</svg>