<svg width="24" height="24" viewBox="0 0 24 24" fill="none" xmlns="http://www.w3.org/2000/svg">
    <path
        d="M16 13C16.5523 13 17 12.5523 17 12C17 11.4477 16.5523 11 16 11C15.4477 11 15 11.4477 15 12C15 12.5523 15.4477 13 16 13Z"
        stroke="currentColor" stroke-width="2" stroke-linecap="round" stroke-linejoin="round" />
    <path
        d="M16 6C16.5523 6 17 5.55228 17 5C17 4.44772 16.5523 4 16 4C15.4477 4 15 4.44772 15 5C15 5.55228 15.4477 6 16 6Z"
        stroke="currentColor" stroke-width="2" stroke-linecap="round" stroke-linejoin="round" />
    <path
        d="M16 20C16.5523 20 17 19.5523 17 19C17 18.4477 16.5523 18 16 18C15.4477 18 15 18.4477 15 19C15 19.5523 15.4477 20 16 20Z"
        stroke="currentColor" stroke-width="2" stroke-linecap="round" stroke-linejoin="round" />
    <path
        d="M9 13C9.5523 13 10 12.5523 10 12C10 11.4477 9.5523 11 9 11C8.4477 11 8 11.4477 8 12C8 12.5523 8.4477 13 9 13Z"
        stroke="currentColor" stroke-width="2" stroke-linecap="round" stroke-linejoin="round" />
    <path
        d="M9 6C9.5523 6 10 5.55228 10 5C10 4.44772 9.5523 4 9 4C8.4477 4 8 4.44772 8 5C8 5.55228 8.4477 6 9 6Z"
        stroke="currentColor" stroke-width="2" stroke-linecap="round" stroke-linejoin="round" />
    <path
        d="M9 20C9.5523 20 10 19.5523 10 19C10 18.4477 9.5523 18 9 18C8.4477 18 8 18.4477 8 19C8 19.5523 8.4477 20 9 20Z"
        stroke="currentColor" stroke-width="2" stroke-linecap="round" stroke-linejoin="round" />
</svg>