<?xml version="1.0" encoding="UTF-8"?>
<svg width="27px" height="27px" viewBox="0 0 27 27" version="1.1" xmlns="http://www.w3.org/2000/svg" xmlns:xlink="http://www.w3.org/1999/xlink">
    <title>Group Copy</title>
    <g id="Page-1" stroke="none" stroke-width="1" fill="none" fill-rule="evenodd">
        <g id="Group-2" transform="translate(0, -7)">
            <path d="M8.53553391,8.53553391 L25.4644661,25.4644661 C27.4170876,27.4170876 27.4170876,30.5829124 25.4644661,32.5355339 C24.5267842,33.4732158 23.2550146,34 21.9289322,34 L5,34 C2.23857625,34 0,31.7614237 0,29 L2.66453526e-15,12.0710678 C2.66453526e-15,9.30964406 2.23857625,7.07106781 5,7.07106781 C6.32608245,7.07106781 7.59785201,7.59785201 8.53553391,8.53553391 Z" id="Rectangle" fill="#D8D8D8"></path>
            <circle id="Oval-Copy-21" fill="#68696A" cx="4.5" cy="11.5" r="1.5"></circle>
            <circle id="Oval-Copy-23" fill="#68696A" cx="4.5" cy="17.5" r="1.5"></circle>
            <circle id="Oval-Copy-24" fill="#68696A" cx="4.5" cy="23.5" r="1.5"></circle>
            <circle id="Oval-Copy-25" fill="#68696A" cx="4.5" cy="29.5" r="1.5"></circle>
            <circle id="Oval-Copy-26" fill="#68696A" cx="10.5" cy="29.5" r="1.5"></circle>
            <circle id="Oval-Copy-27" fill="#68696A" cx="10.5" cy="23.5" r="1.5"></circle>
            <circle id="Oval-Copy-29" fill="#68696A" cx="16.5" cy="23.5" r="1.5"></circle>
            <circle id="Oval-Copy-30" fill="#68696A" cx="16.5" cy="29.5" r="1.5"></circle>
            <circle id="Oval-Copy-31" fill="#68696A" cx="22.5" cy="29.5" r="1.5"></circle>
            <circle id="Oval-Copy-28" fill="#68696A" cx="10.5" cy="17.5" r="1.5"></circle>
        </g>
    </g>
</svg>