<svg width="24" height="24" viewBox="0 0 24 24" fill="none" xmlns="http://www.w3.org/2000/svg">
    <path
        d="M21.4102 10.1264C18.2734 10.1248 15.1366 10.1256 11.9998 10.126C12.0002 11.427 11.9983 12.7281 12.0006 14.0287C13.8172 14.0283 15.6338 14.028 17.45 14.0287C17.2395 15.2755 16.4986 16.4156 15.4479 17.1175C14.7874 17.5616 14.0285 17.8498 13.2461 17.9869C12.4587 18.1213 11.6451 18.1385 10.8597 17.9795C10.0609 17.8201 9.29849 17.4873 8.63336 17.0182C7.5698 16.271 6.75814 15.1778 6.34139 13.9474C5.91525 12.696 5.91212 11.3035 6.34334 10.0533C6.64254 9.17213 7.14054 8.35815 7.79474 7.69574C8.60169 6.86964 9.65082 6.27909 10.7812 6.03692C11.749 5.83031 12.7696 5.86974 13.7172 6.15642C14.5226 6.40095 15.2651 6.84228 15.8732 7.42308C16.488 6.8118 17.0997 6.19702 17.7133 5.58461C18.0351 5.25496 18.3734 4.93975 18.6851 4.60113C17.7531 3.73869 16.6607 3.04543 15.467 2.60718C13.318 1.81628 10.8944 1.79949 8.73099 2.54828C6.29294 3.38295 4.21697 5.20619 3.06594 7.51067C2.66521 8.30474 2.37264 9.1523 2.19689 10.0241C1.75473 12.1961 2.06291 14.5119 3.06477 16.4902C3.71588 17.7815 4.64936 18.9294 5.78169 19.8293C6.84996 20.6812 8.09512 21.3104 9.41531 21.6616C11.0812 22.1084 12.8544 22.0982 14.5312 21.7167C16.0467 21.3679 17.4805 20.6437 18.6253 19.5868C19.8354 18.4748 20.6985 17.0097 21.1555 15.4352C21.6539 13.7179 21.7227 11.8844 21.4102 10.1264Z"
        fill="currentColor" />
</svg>