<svg width="24px" height="24px" viewBox="0 0 24 24" version="1.1" xmlns="http://www.w3.org/2000/svg" xmlns:xlink="http://www.w3.org/1999/xlink">
    <g id="pin-filled" transform="translate(5.081059, 2.000000)">
        <path d="M1.79706059,2.19423 C1.50302059,1.45914 1.35601059,1.09159 1.41732059,0.79655 C1.47093059,0.53853 1.62423059,0.31211 1.84388059,0.1665 C2.09505059,0 2.49091059,0 3.28262059,0 L10.5561406,0 C11.3478406,0 11.7436406,0 11.9948406,0.1665 C12.2145406,0.31211 12.3678406,0.53853 12.4214406,0.79655 C12.4827406,1.09159 12.3357406,1.45914 12.0416406,2.19423 L11.0338406,4.71391 C10.9910406,4.8208 10.9696406,4.87424 10.9546406,4.92937 C10.9412406,4.97833 10.9316406,5.02825 10.9258406,5.07868 C10.9193406,5.13544 10.9193406,5.19301 10.9193406,5.30813 L10.9193406,7.43875 C10.9193406,7.64677 10.9193406,7.75078 10.9397406,7.85026 C10.9579406,7.93852 10.9878406,8.02393 11.0288406,8.10417 C11.0750406,8.19461 11.1400406,8.27583 11.2699406,8.43826 L12.8397406,10.4005 C13.5055406,11.2327 13.8383406,11.6487 13.8387411,11.9989 C13.8390406,12.3035 13.7006406,12.5916 13.4626406,12.7815 C13.1889406,13 12.6560406,13 11.5903406,13 L2.24837059,13 C1.18267059,13 0.649820589,13 0.376140589,12.7815 C0.138130589,12.5916 -0.000329411455,12.3035 -8.8817842e-16,11.9989 C0.000370588545,11.6487 0.333240589,11.2327 0.998980589,10.4005 L2.56876059,8.43826 C2.69871059,8.27583 2.76368059,8.19461 2.80989059,8.10417 C2.85088059,8.02393 2.88084059,7.93852 2.89895059,7.85026 C2.91937059,7.75078 2.91937059,7.64677 2.91937059,7.43875 L2.91937059,5.30813 C2.91937059,5.19301 2.91937059,5.13544 2.91286059,5.07868 C2.90708059,5.02825 2.89747059,4.97833 2.88411059,4.92937 C2.86907059,4.87424 2.84769059,4.8208 2.80493059,4.71391 L1.79706059,2.19423 Z" id="Path" fill="currentColor" fill-rule="nonzero"></path>
        <path d="M6.91937059,13 L6.91937059,20 M2.91937059,5.30813 L2.91937059,7.43875 C2.91937059,7.64677 2.91937059,7.75078 2.89895059,7.85026 C2.88084059,7.93852 2.85088059,8.02393 2.80989059,8.10417 C2.76368059,8.19461 2.69871059,8.27583 2.56876059,8.43826 L0.998980589,10.4005 C0.333240589,11.2327 0.000370588545,11.6487 -8.8817842e-16,11.9989 C-0.000329411455,12.3035 0.138130589,12.5916 0.376140589,12.7815 C0.649820589,13 1.18267059,13 2.24837059,13 L11.5903406,13 C12.6560406,13 13.1889406,13 13.4626406,12.7815 C13.7006406,12.5916 13.8390406,12.3035 13.8387411,11.9989 C13.8383406,11.6487 13.5055406,11.2327 12.8397406,10.4005 L11.2699406,8.43826 C11.1400406,8.27583 11.0750406,8.19461 11.0288406,8.10417 C10.9878406,8.02393 10.9579406,7.93852 10.9397406,7.85026 C10.9193406,7.75078 10.9193406,7.64677 10.9193406,7.43875 L10.9193406,5.30813 C10.9193406,5.19301 10.9193406,5.13544 10.9258406,5.07868 C10.9316406,5.02825 10.9412406,4.97833 10.9546406,4.92937 C10.9696406,4.87424 10.9910406,4.8208 11.0338406,4.71391 L12.0416406,2.19423 C12.3357406,1.45914 12.4827406,1.09159 12.4214406,0.79655 C12.3678406,0.53853 12.2145406,0.31211 11.9948406,0.1665 C11.7436406,0 11.3478406,0 10.5561406,0 L3.28262059,0 C2.49091059,0 2.09505059,0 1.84388059,0.1665 C1.62423059,0.31211 1.47093059,0.53853 1.41732059,0.79655 C1.35601059,1.09159 1.50302059,1.45914 1.79706059,2.19423 L2.80493059,4.71391 C2.84769059,4.8208 2.86907059,4.87424 2.88411059,4.92937 C2.89747059,4.97833 2.90708059,5.02825 2.91286059,5.07868 C2.91937059,5.13544 2.91937059,5.19301 2.91937059,5.30813 Z" id="Shape" stroke="currentColor" stroke-width="2" stroke-linecap="round" stroke-linejoin="round"></path>
    </g>
</svg>