<svg version="1.1" width="22px" height="12px" viewBox="0 0 22.0 12.0" xmlns="http://www.w3.org/2000/svg" xmlns:xlink="http://www.w3.org/1999/xlink">
    <g transform="translate(3.0 2.0)">
        <g clip-path="url(#i0)">
            <polygon points="0,0 8,0 8,8 0,8 0,0" stroke="none" fill="currentColor"></polygon>
        </g>
        <polygon points="0,0 8,0 8,8 0,8 0,0 0,0" stroke="currentColor" stroke-width="2" fill="none" stroke-linecap="round" stroke-linejoin="round"></polygon>
    </g>
    <g transform="translate(1.0 1.0)">
        <path d="M15,10 L5,10 C2.23858,10 0,7.7614 0,5 C0,2.23858 2.23858,0 5,0 L15,0 M15,10 C17.7614,10 20,7.7614 20,5 C20,2.23858 17.7614,0 15,0 M15,10 C12.2386,10 10,7.7614 10,5 C10,2.23858 12.2386,0 15,0" stroke="currentColor" stroke-width="2" fill="none" stroke-linecap="round" stroke-linejoin="round"></path>
    </g>
</svg>